<svg xmlns="http://www.w3.org/2000/svg" width="24" height="24" viewBox="0 0 24 24" fill="none">
  <rect width="24" height="24" fill="white" fill-opacity="0.01"/>
  <path fill-rule="evenodd" clip-rule="evenodd" d="M12.7105 14.6935C12.523 14.881 12.2687 14.9863 12.0035 14.9863C11.7383 14.9863 11.484 14.881 11.2965 14.6935L6.7035 10.1005C6.52093 9.91424 6.41926 9.66343 6.42058 9.4026C6.4219 9.14177 6.5261 8.892 6.71053 8.70757C6.89497 8.52313 7.14474 8.41893 7.40557 8.41761C7.6664 8.4163 7.91721 8.51797 8.1035 8.70053L12.0035 12.6005L15.9035 8.70053C16.0898 8.51797 16.3406 8.4163 16.6014 8.41762C16.8623 8.41893 17.112 8.52313 17.2965 8.70757C17.4809 8.892 17.5851 9.14177 17.5864 9.4026C17.5877 9.66343 17.4861 9.91424 17.3035 10.1005L12.7105 14.6935Z" fill="#231E49"/>
</svg>